<svg id="visual" viewBox="0 0 900 600" width="900" height="600" xmlns="http://www.w3.org/2000/svg" xmlns:xlink="http://www.w3.org/1999/xlink" version="1.1"><path d="M0 336L15 342.5C30 349 60 362 90 377.7C120 393.3 150 411.7 180 405.3C210 399 240 368 270 366.3C300 364.7 330 392.3 360 396.2C390 400 420 380 450 379.2C480 378.3 510 396.7 540 398.8C570 401 600 387 630 402.5C660 418 690 463 720 477.8C750 492.7 780 477.3 810 473.8C840 470.3 870 478.7 885 482.8L900 487L900 601L885 601C870 601 840 601 810 601C780 601 750 601 720 601C690 601 660 601 630 601C600 601 570 601 540 601C510 601 480 601 450 601C420 601 390 601 360 601C330 601 300 601 270 601C240 601 210 601 180 601C150 601 120 601 90 601C60 601 30 601 15 601L0 601Z" fill="#d7dadf"></path><path d="M0 403L15 402.2C30 401.3 60 399.7 90 413C120 426.3 150 454.7 180 467C210 479.3 240 475.7 270 464.7C300 453.7 330 435.3 360 446.5C390 457.7 420 498.3 450 512.5C480 526.7 510 514.3 540 515.8C570 517.3 600 532.7 630 528.7C660 524.7 690 501.3 720 501.5C750 501.7 780 525.3 810 515.8C840 506.3 870 463.7 885 442.3L900 421L900 601L885 601C870 601 840 601 810 601C780 601 750 601 720 601C690 601 660 601 630 601C600 601 570 601 540 601C510 601 480 601 450 601C420 601 390 601 360 601C330 601 300 601 270 601C240 601 210 601 180 601C150 601 120 601 90 601C60 601 30 601 15 601L0 601Z" fill="#6b717f"></path><path d="M0 474L15 478.3C30 482.7 60 491.3 90 490.8C120 490.3 150 480.7 180 476.5C210 472.3 240 473.7 270 482C300 490.3 330 505.7 360 518.5C390 531.3 420 541.7 450 551.7C480 561.7 510 571.3 540 569.7C570 568 600 555 630 544.3C660 533.7 690 525.3 720 527.8C750 530.3 780 543.7 810 554.5C840 565.3 870 573.7 885 577.8L900 582L900 601L885 601C870 601 840 601 810 601C780 601 750 601 720 601C690 601 660 601 630 601C600 601 570 601 540 601C510 601 480 601 450 601C420 601 390 601 360 601C330 601 300 601 270 601C240 601 210 601 180 601C150 601 120 601 90 601C60 601 30 601 15 601L0 601Z" fill="#0f172a"></path></svg>