<svg id="visual" viewBox="0 0 900 600" width="900" height="600" xmlns="http://www.w3.org/2000/svg" xmlns:xlink="http://www.w3.org/1999/xlink" version="1.1"><path d="M0 247L21.5 246.8C43 246.7 86 246.3 128.8 233.5C171.7 220.7 214.3 195.3 257.2 187.5C300 179.7 343 189.3 385.8 186.7C428.7 184 471.3 169 514.2 169.3C557 169.7 600 185.3 642.8 194.7C685.7 204 728.3 207 771.2 214.2C814 221.3 857 232.7 878.5 238.3L900 244L900 0L878.5 0C857 0 814 0 771.2 0C728.3 0 685.7 0 642.8 0C600 0 557 0 514.2 0C471.3 0 428.7 0 385.8 0C343 0 300 0 257.2 0C214.3 0 171.7 0 128.8 0C86 0 43 0 21.5 0L0 0Z" fill="#fa7268"></path><path d="M0 164L21.5 158.7C43 153.3 86 142.7 128.8 146C171.7 149.3 214.3 166.7 257.2 166.5C300 166.3 343 148.7 385.8 141C428.7 133.3 471.3 135.7 514.2 146C557 156.3 600 174.7 642.8 171.7C685.7 168.7 728.3 144.3 771.2 144C814 143.7 857 167.3 878.5 179.2L900 191L900 0L878.5 0C857 0 814 0 771.2 0C728.3 0 685.7 0 642.8 0C600 0 557 0 514.2 0C471.3 0 428.7 0 385.8 0C343 0 300 0 257.2 0C214.3 0 171.7 0 128.8 0C86 0 43 0 21.5 0L0 0Z" fill="#f54d77"></path><path d="M0 117L21.5 119.3C43 121.7 86 126.3 128.8 126.5C171.7 126.7 214.3 122.3 257.2 125.5C300 128.7 343 139.3 385.8 134.7C428.7 130 471.3 110 514.2 104.7C557 99.3 600 108.7 642.8 112.8C685.7 117 728.3 116 771.2 111.8C814 107.7 857 100.3 878.5 96.7L900 93L900 0L878.5 0C857 0 814 0 771.2 0C728.3 0 685.7 0 642.8 0C600 0 557 0 514.2 0C471.3 0 428.7 0 385.8 0C343 0 300 0 257.2 0C214.3 0 171.7 0 128.8 0C86 0 43 0 21.5 0L0 0Z" fill="#e4268f"></path><path d="M0 59L21.5 64C43 69 86 79 128.8 81.5C171.7 84 214.3 79 257.2 74.3C300 69.7 343 65.3 385.8 67.2C428.7 69 471.3 77 514.2 82.2C557 87.3 600 89.7 642.8 94.5C685.7 99.3 728.3 106.7 771.2 102C814 97.3 857 80.7 878.5 72.3L900 64L900 0L878.5 0C857 0 814 0 771.2 0C728.3 0 685.7 0 642.8 0C600 0 557 0 514.2 0C471.3 0 428.7 0 385.8 0C343 0 300 0 257.2 0C214.3 0 171.7 0 128.8 0C86 0 43 0 21.5 0L0 0Z" fill="#c113ad"></path><path d="M0 46L21.5 50.5C43 55 86 64 128.8 62.5C171.7 61 214.3 49 257.2 46.5C300 44 343 51 385.8 49.5C428.7 48 471.3 38 514.2 39.7C557 41.3 600 54.7 642.8 54.8C685.7 55 728.3 42 771.2 40.5C814 39 857 49 878.5 54L900 59L900 0L878.5 0C857 0 814 0 771.2 0C728.3 0 685.7 0 642.8 0C600 0 557 0 514.2 0C471.3 0 428.7 0 385.8 0C343 0 300 0 257.2 0C214.3 0 171.7 0 128.8 0C86 0 43 0 21.5 0L0 0Z" fill="#812bcc"></path></svg>